<svg width="159" height="159" viewBox="0 0 159 159" fill="none" xmlns="http://www.w3.org/2000/svg">
<path d="M69.2312 102.688C71.9917 105.448 75.4698 106.746 79.6656 106.583C83.8615 106.42 86.8979 104.9 88.775 102.025L116.766 60.1219C117.759 58.576 117.622 57.1671 116.355 55.8951C115.087 54.6231 113.678 54.4862 112.128 55.4844L70.225 83.475C67.3542 85.4625 65.7818 88.4725 65.508 92.5049C65.2342 96.5373 66.4752 99.9315 69.2312 102.688ZM33.7875 132.5C31.3583 132.5 29.1235 131.974 27.083 130.923C25.0425 129.872 23.4127 128.3 22.1937 126.206C19.3229 121.017 17.1146 115.635 15.5687 110.061C14.0229 104.487 13.25 98.7169 13.25 92.75C13.25 83.5854 14.9902 74.9729 18.4705 66.9125C21.9508 58.8521 26.67 51.8406 32.6281 45.8781C38.5862 39.9156 45.5977 35.1964 53.6625 31.7205C61.7273 28.2446 70.3398 26.5044 79.5 26.5C88.5542 26.5 97.0563 28.2115 105.006 31.6344C112.956 35.0573 119.913 39.7235 125.875 45.633C131.837 51.5425 136.585 58.4435 140.119 66.3361C143.652 74.2287 145.474 82.7021 145.584 91.7563C145.695 97.8292 145.006 103.765 143.517 109.564C142.029 115.363 139.737 120.911 136.641 126.206C135.426 128.304 133.799 129.879 131.758 130.93C129.718 131.981 127.478 132.504 125.04 132.5H33.7875Z" fill="#8AC926"/>
</svg>
